<?xml version="1.0" encoding="UTF-8"?>
<svg id="Layer_1" xmlns="http://www.w3.org/2000/svg" version="1.1" viewBox="0 0 200 200">
  <!-- Generator: Adobe Illustrator 30.3.0, SVG Export Plug-In . SVG Version: 2.1.3 Build 182)  -->
  <defs>
    <style>
      .st0 {
        fill: #1b1464;
      }
    </style>
  </defs>
  <g id="gUfa6K">
    <g>
      <path class="st0" d="M169.2,71.64c-8.09-.16-16.53-.39-24.97-.47-4.89-.04-9.78.24-14.68.23-4.65-.01-9.31-.22-13.96-.33-2.79-.06-4.42-1.64-6.06-3.78-1.7-2.23-3.78-4.52-6.22-5.75-3.42-1.72-6.96-.23-8.71,3.2-2.55,4.98-6.25,6.68-11.91,6.45-10.2-.4-20.43.1-30.64.17-10.47.07-20.94.15-31.41.08-3.58-.03-5.38-2.65-3.92-5.65,3.25-6.72,6.24-13.64,10.21-19.93,6.31-10,14.26-18.65,24.3-25.17,2.09-1.35,4.03-2.97,6.2-4.17,4.17-2.31,6.47-1.24,8.87,2.91,2.76,4.78,5.94,9.38,11.82,10.84,4.1,1.02,6.8-.07,8.98-3.74,1.58-2.66,2.8-5.4,3.35-8.28.41-4.47,0-5.7-.15-7.52-.27-3.5.56-4.29,3.33-4.5,3.52-.27,7.06-.38,10.58-.34,2.67.03,4.18,1.51,4.37,4.3.19,2.91.18,5.89.88,8.69.66,2.67,1.7,5.44,3.3,7.64,2.75,3.78,8.25,4.77,11.98,1.92,3.5-2.67,6.57-6.01,9.39-9.42,2.52-3.05,3.64-4.03,7.01-2.04,4.98,2.95,9.69,6.39,14.28,9.92,7.08,5.44,12.49,12.4,17.62,19.67,4.2,5.95,7.02,12.45,9.42,19.21,1.23,3.45-.16,5.47-3.85,5.65-3.02.15-6.04.14-9.42.21Z"/>
      <path class="st0" d="M188.48,91.04c-.24,8.08-.24,16.07-2.14,24.16-1.68,7.15-3.43,14.17-6.75,20.65-2.94,5.72-5.95,11.58-9.99,16.49-5.66,6.88-12.01,13.29-20.11,17.52-5.06,2.64-10.05,5.42-15.16,7.96-1.75.87-3.74,1.28-5.64,1.81-2.25.64-3.1,1.96-3.03,4.38.06,2.13-.27,4.37-.94,6.39-.79,2.36-2.83,3.5-5.33,3.71-4.93.4-9.86.98-14.8,1.18-2.99.12-6-.27-9-.5-3.5,0-7.59-.82-7.63-.7-4.95.12-8.28-2.79-8.03-7.72.15-3-.77-4.69-3.69-5.99-7.66-3.42-15.55-6.63-22.59-11.1-11.53-7.33-20.46-17.3-27.78-29.04-7.62-12.22-11.65-25.33-12.78-39.38-.56-7.01.31-14.15.66-21.22.12-2.39,1.98-2.99,4.03-3,12.37-.06,24.74-.09,37.1-.15,15.3-.07,30.6-.2,45.91-.24,17.8-.04,35.6,0,53.4,0,8.75,0,17.5.03,26.24-.03,4.47-.03,6.26,1.31,6.96,5.79.47,2.98.74,6,1.1,9.03ZM66.17,98.98c5.84-.12,11.68-.39,17.51-.31,5.32.08,6.46,1.12,6.55,6.52.1,6.45-.2,12.92-.49,19.37-.7,15.61-1.5,31.21-2.23,46.82-.13,2.69,1.08,4.63,3.86,4.73,7.27.27,14.56.54,21.83.33,3.73-.11,4.96-2.05,4.79-5.92-.18-4.37-.47-8.74-.75-13.11-.6-9.46-1.24-18.92-1.84-28.38-.54-8.42-1.18-16.83-1.53-25.25-.17-4.16.97-5.17,5.13-5.32,7.71-.26,15.43-.57,23.14-.56,11.03.02,22.06.38,33.09.43,1.9,0,4.1-.35,5.66-1.33,3.4-2.15,2.09-13.48-1.73-14.73-2.69-.88-5.69-.96-8.57-1.09-2.48-.11-4.98.32-7.47.31-11.13-.02-22.27-.17-33.4-.16-6.03,0-12.06.33-18.09.34-6.88.01-13.75-.27-20.63-.23-7.79.05-15.59.38-23.38.49-14.57.22-29.15.36-43.72.55-2.97.04-4.75,1.48-4.87,4.53-.08,2.07.01,4.16.12,6.23.27,5.15,1.15,5.99,6.42,6.22,1.04.05,2.09.08,3.13.06,12.49-.25,37.48-.63,37.48-.56ZM43.92,104.27c-6.24.13-12.49.27-18.73.38-3.94.06-5.06,1.52-3.98,5.27.14.5.25,1.01.35,1.52,1.99,10.16,6.3,19.47,11.99,27.91,5.56,8.25,12.28,15.63,20.57,21.55,6.59,4.71,13.41,8.72,21.11,11.21,4.25,1.38,5.45.58,5.73-3.95.42-6.75.77-13.51,1.21-20.27.8-12.15,1.64-24.29,2.46-36.44.03-.42.04-.83.03-1.25-.04-4.47-1.57-6.08-6.05-6-11.56.19-34.69.28-34.69.08ZM138.85,103.52c-4.69.1-9.38.23-14.07.28-3.98.04-5.23,1.21-5.06,5.27.17,4.05.5,8.1.82,12.15,1.21,15.56,2.43,31.13,3.66,46.69.06.72.19,1.45.34,2.16.42,2.04,1.77,2.99,3.66,2.23,5.19-2.1,10.77-3.7,15.33-6.78,9.29-6.28,17.71-13.6,24.28-23.02,7.26-10.41,12.05-21.59,13.76-34.11.48-3.56-1.01-4.99-4.65-4.78-1.97.12-3.94.4-5.91.34-10.71-.31-32.14-.63-32.15-.42Z"/>
    </g>
  </g>
</svg>